<svg width="24" height="24" viewBox="0 0 24 24" fill="none" xmlns="http://www.w3.org/2000/svg">
<path d="M7.404 0.912C8.8621 0.311938 10.4233 0.00214983 12 0C13.572 0 15.132 0.312 16.596 0.912C18.048 1.512 19.368 2.4 20.484 3.516C21.6 4.632 22.488 5.952 23.088 7.404C23.688 8.868 24 10.428 24 12C24 15.18 22.74 18.24 20.484 20.484C19.3711 21.6 18.0488 22.4851 16.5928 23.0885C15.1369 23.6918 13.576 24.0016 12 24C10.4233 23.9978 8.8621 23.6881 7.404 23.088C5.94968 22.4835 4.62857 21.5987 3.51601 20.484C2.40003 19.3711 1.51493 18.0487 0.91154 16.5928C0.308154 15.1368 -0.00162169 13.576 6.38419e-06 12C6.38419e-06 8.82 1.26001 5.76 3.51601 3.516C4.632 2.4 5.952 1.512 7.404 0.912ZM12 18L13.872 13.896L18 12L13.872 10.128L12 6L10.116 10.128L6 12L10.116 13.896L12 18Z" fill="#F5C330"/>
</svg>
