<svg width="40" height="40" viewBox="0 0 40 40" fill="none" xmlns="http://www.w3.org/2000/svg">
<path d="M20 30L23.12 23.16L30 20L23.12 16.88L20 10L16.86 16.88L10 20L16.86 23.16L20 30ZM12.34 1.52C14.7702 0.519896 17.3721 0.00358304 20 0C22.62 0 25.22 0.52 27.66 1.52C30.08 2.52 32.28 4 34.14 5.86C36 7.72 37.48 9.92 38.48 12.34C39.48 14.78 40 17.38 40 20C40 25.3 37.9 30.4 34.14 34.14C32.2852 36 30.0813 37.4751 27.6547 38.4808C25.2281 39.4864 22.6267 40.0027 20 40C17.3721 39.9964 14.7702 39.4801 12.34 38.48C9.91614 37.4726 7.71428 35.9979 5.86001 34.14C4.00005 32.2852 2.52488 30.0812 1.51923 27.6547C0.513591 25.2281 -0.00270281 22.6267 1.06403e-05 20C1.06403e-05 14.7 2.10001 9.6 5.86001 5.86C7.72001 4 9.92001 2.52 12.34 1.52ZM8.68001 31.32C11.68 34.32 15.76 36 20 36C24.24 36 28.32 34.32 31.32 31.32C34.32 28.32 36 24.24 36 20C36 15.76 34.32 11.68 31.32 8.68C29.833 7.19465 28.0679 6.01682 26.1256 5.21382C24.1833 4.41081 22.1018 3.99835 20 4C15.76 4 11.68 5.68 8.68001 8.68C7.19466 10.167 6.01683 11.9321 5.21383 13.8744C4.41082 15.8167 3.99836 17.8982 4.00001 20C4.00001 24.24 5.68001 28.32 8.68001 31.32Z" fill="#150F02"/>
</svg>
