<svg width="11" height="10" viewBox="0 0 11 10" fill="none" xmlns="http://www.w3.org/2000/svg">
<path d="M5.53148 7.4706L4.76065 5.78072L3.06089 5.00001L4.76065 4.22919L5.53148 2.52943L6.30724 4.22919L8.00207 5.00001L6.30724 5.78072L5.53148 7.4706ZM7.42395 0.434367C6.82356 0.187283 6.18072 0.0597231 5.53148 0.0588379C4.88418 0.0588379 4.24183 0.187308 3.63901 0.434367C3.04113 0.681426 2.4976 1.04707 2.03807 1.5066C1.57854 1.96613 1.21289 2.50966 0.965833 3.10754C0.718774 3.71037 0.590303 4.35272 0.590303 5.00001C0.590303 6.30942 1.10913 7.56942 2.03807 8.49342C2.4963 8.95294 3.04082 9.3174 3.64033 9.56585C4.23984 9.8143 4.88253 9.94186 5.53148 9.94119C6.18072 9.9403 6.82356 9.81274 7.42395 9.56566C8.02279 9.31677 8.56678 8.95243 9.02489 8.49342C9.48441 8.03519 9.84886 7.49067 10.0973 6.89116C10.3458 6.29166 10.4733 5.64897 10.4727 5.00001C10.4727 3.6906 9.95383 2.4306 9.02489 1.5066C8.56536 1.04707 8.02183 0.681426 7.42395 0.434367ZM8.32818 7.79672C7.58701 8.53789 6.57901 8.95295 5.53148 8.95295C4.48395 8.95295 3.47595 8.53789 2.73477 7.79672C1.9936 7.05554 1.57854 6.04754 1.57854 5.00001C1.57854 3.95248 1.9936 2.94448 2.73477 2.20331C3.10215 1.83634 3.53823 1.54535 4.0181 1.34696C4.49796 1.14857 5.01222 1.04666 5.53148 1.04707C6.57901 1.04707 7.58701 1.46213 8.32818 2.20331C8.69515 2.57068 8.98614 3.00676 9.18453 3.48663C9.38293 3.9665 9.48483 4.48075 9.48442 5.00001C9.48442 6.04754 9.06936 7.05554 8.32818 7.79672Z" fill="#9A791A"/>
</svg>
